<mxfile host="app.diagrams.net">
  <diagram name="Attendance Flow" id="6JB7k3FNaiY33hO8aD_1">
    <mxGraphModel dx="1274" dy="671" grid="1" gridSize="10" guides="1" tooltips="1" connect="1" arrows="1" fold="1" page="1" pageScale="1" pageWidth="827" pageHeight="1169" math="0" shadow="0">
      <root>
        <mxCell id="0"/>
        <mxCell id="1" parent="0"/>
        <mxCell id="2" value="Start" style="ellipse;whiteSpace=wrap;html=1;" vertex="1" parent="1">
          <mxGeometry x="160" y="40" width="120" height="60" as="geometry"/>
        </mxCell>
        <mxCell id="3" value="Login to Dashboard" style="rounded=1;whiteSpace=wrap;html=1;" vertex="1" parent="1">
          <mxGeometry x="160" y="120" width="160" height="60" as="geometry"/>
        </mxCell>
        <mxCell id="4" value="Display All Classes" style="rounded=1;whiteSpace=wrap;html=1;" vertex="1" parent="1">
          <mxGeometry x="160" y="200" width="160" height="60" as="geometry"/>
        </mxCell>
        <mxCell id="5" value="Filter by Section Time?" style="rhombus;whiteSpace=wrap;html=1;" vertex="1" parent="1">
          <mxGeometry x="160" y="280" width="160" height="80" as="geometry"/>
        </mxCell>
        <mxCell id="6" value="Show Morning Classes" style="rounded=1;whiteSpace=wrap;html=1;" vertex="1" parent="1">
          <mxGeometry x="0" y="400" width="160" height="60" as="geometry"/>
        </mxCell>
        <mxCell id="7" value="Show Evening Classes" style="rounded=1;whiteSpace=wrap;html=1;" vertex="1" parent="1">
          <mxGeometry x="180" y="400" width="160" height="60" as="geometry"/>
        </mxCell>
        <mxCell id="8" value="Show Night Classes" style="rounded=1;whiteSpace=wrap;html=1;" vertex="1" parent="1">
          <mxGeometry x="360" y="400" width="160" height="60" as="geometry"/>
        </mxCell>
        <mxCell id="9" value="Select a Class" style="rounded=1;whiteSpace=wrap;html=1;" vertex="1" parent="1">
          <mxGeometry x="180" y="480" width="160" height="60" as="geometry"/>
        </mxCell>
        <mxCell id="10" value="Display Students in Class" style="rounded=1;whiteSpace=wrap;html=1;" vertex="1" parent="1">
          <mxGeometry x="180" y="560" width="200" height="60" as="geometry"/>
        </mxCell>
        <mxCell id="11" value="Take Attendance" style="rounded=1;whiteSpace=wrap;html=1;" vertex="1" parent="1">
          <mxGeometry x="180" y="640" width="160" height="60" as="geometry"/>
        </mxCell>
        <mxCell id="12" value="Save Attendance Record" style="rounded=1;whiteSpace=wrap;html=1;" vertex="1" parent="1">
          <mxGeometry x="180" y="720" width="200" height="60" as="geometry"/>
        </mxCell>
        <mxCell id="13" value="Back to Dashboard or Exit" style="ellipse;whiteSpace=wrap;html=1;" vertex="1" parent="1">
          <mxGeometry x="180" y="800" width="200" height="60" as="geometry"/>
        </mxCell>

        <!-- Arrows -->
        <mxCell id="14" style="edgeStyle=orthogonalEdgeStyle;rounded=0;orthogonalLoop=1;" edge="1" parent="1" source="2" target="3"><mxGeometry relative="1" as="geometry"/></mxCell>
        <mxCell id="15" style="edgeStyle=orthogonalEdgeStyle;rounded=0;" edge="1" parent="1" source="3" target="4"><mxGeometry relative="1" as="geometry"/></mxCell>
        <mxCell id="16" style="edgeStyle=orthogonalEdgeStyle;rounded=0;" edge="1" parent="1" source="4" target="5"><mxGeometry relative="1" as="geometry"/></mxCell>
        <mxCell id="17" style="edgeStyle=orthogonalEdgeStyle;rounded=0;" edge="1" parent="1" source="5" target="6"><mxGeometry relative="1" as="geometry"><mxPoint x="160" y="340" as="offset"/></mxGeometry></mxCell>
        <mxCell id="18" style="edgeStyle=orthogonalEdgeStyle;rounded=0;" edge="1" parent="1" source="5" target="7"><mxGeometry relative="1" as="geometry"/></mxCell>
        <mxCell id="19" style="edgeStyle=orthogonalEdgeStyle;rounded=0;" edge="1" parent="1" source="5" target="8"><mxGeometry relative="1" as="geometry"/></mxCell>
        <mxCell id="20" style="edgeStyle=orthogonalEdgeStyle;rounded=0;" edge="1" parent="1" source="6" target="9"><mxGeometry relative="1" as="geometry"/></mxCell>
        <mxCell id="21" style="edgeStyle=orthogonalEdgeStyle;rounded=0;" edge="1" parent="1" source="7" target="9"><mxGeometry relative="1" as="geometry"/></mxCell>
        <mxCell id="22" style="edgeStyle=orthogonalEdgeStyle;rounded=0;" edge="1" parent="1" source="8" target="9"><mxGeometry relative="1" as="geometry"/></mxCell>
        <mxCell id="23" style="edgeStyle=orthogonalEdgeStyle;rounded=0;" edge="1" parent="1" source="9" target="10"><mxGeometry relative="1" as="geometry"/></mxCell>
        <mxCell id="24" style="edgeStyle=orthogonalEdgeStyle;rounded=0;" edge="1" parent="1" source="10" target="11"><mxGeometry relative="1" as="geometry"/></mxCell>
        <mxCell id="25" style="edgeStyle=orthogonalEdgeStyle;rounded=0;" edge="1" parent="1" source="11" target="12"><mxGeometry relative="1" as="geometry"/></mxCell>
        <mxCell id="26" style="edgeStyle=orthogonalEdgeStyle;rounded=0;" edge="1" parent="1" source="12" target="13"><mxGeometry relative="1" as="geometry"/></mxCell>
      </root>
    </mxGraphModel>
  </diagram>
</mxfile>
